<svg width="1645pt" height="172pt" viewBox="0 0 1649 176" xmlns="http://www.w3.org/2000/svg"><g id="fontsvg1667244146032" stroke-linecap="round" fill-rule="evenodd" fill="#ffffff"><path d="M 748.901 10.986 L 763.062 2.197 Q 772.194 4.48 783.81 5.699 A 207.988 207.988 0 0 0 784.18 5.737 L 803.589 7.446 A 40.671 40.671 0 0 1 812.038 14.846 A 51.423 51.423 0 0 1 815.918 19.897 L 821.289 58.594 L 826.538 78.003 L 828.247 100.952 Q 827.881 111.328 824.707 122.192 A 11.473 11.473 0 0 0 829.6 127.191 A 14.265 14.265 0 0 0 830.078 127.441 L 835.449 120.483 L 837.158 113.403 L 833.618 111.694 L 835.449 108.032 L 838.867 92.163 L 837.158 81.543 L 840.698 74.585 L 844.238 53.345 A 67.639 67.639 0 0 1 846.064 41.307 A 81.095 81.095 0 0 1 847.656 35.645 L 851.196 16.357 A 44.474 44.474 0 0 1 866.618 7.632 A 50.827 50.827 0 0 1 867.188 7.446 L 890.137 5.737 L 911.255 9.155 A 84.466 84.466 0 0 1 916.504 28.687 L 916.504 76.294 L 914.795 92.163 L 916.504 97.534 L 916.504 113.403 L 918.335 116.943 L 916.504 118.652 L 918.335 136.353 L 916.504 159.302 A 110.668 110.668 0 0 1 909.119 163.757 A 149.106 149.106 0 0 1 900.635 168.091 A 69.213 69.213 0 0 1 887.57 166.269 A 83.935 83.935 0 0 1 881.348 164.551 A 38.199 38.199 0 0 1 872.88 151.546 A 44.292 44.292 0 0 1 872.437 150.391 L 879.395 46.265 Q 875 52.246 872.437 60.425 L 863.647 118.652 Q 861.206 127.075 856.567 136.353 L 858.398 152.222 L 856.567 157.593 A 93.284 93.284 0 0 1 850.037 161.957 Q 846.607 164.056 842.662 166.126 A 150.482 150.482 0 0 1 842.407 166.26 L 837.158 166.26 L 837.158 168.091 L 821.289 166.26 A 68.091 68.091 0 0 1 813.44 159.098 A 83.983 83.983 0 0 1 808.96 153.931 L 807.129 130.981 L 798.34 92.163 A 62.719 62.719 0 0 1 795.11 78.067 A 71.866 71.866 0 0 1 794.8 74.585 L 791.26 53.345 L 791.26 44.556 L 786.011 53.345 L 789.551 72.754 L 787.72 88.745 L 789.551 93.994 L 787.72 116.943 L 796.509 152.222 A 42.817 42.817 0 0 1 789.576 160.242 A 54.621 54.621 0 0 1 784.18 164.551 L 768.311 166.26 L 763.062 164.551 A 41.489 41.489 0 0 1 754.036 160.53 A 56.243 56.243 0 0 1 747.07 155.64 L 747.07 130.981 L 750.61 109.863 L 745.361 90.454 L 750.61 72.754 L 745.361 53.345 L 747.07 30.396 L 745.361 25.146 L 748.901 10.986 Z M 1270.264 13.428 L 1292.725 3.052 L 1311.646 4.761 L 1318.604 3.052 L 1323.73 3.052 L 1365.112 23.682 L 1373.901 30.64 L 1370.361 44.434 A 126.605 126.605 0 0 1 1352.745 59.046 A 140.039 140.039 0 0 1 1351.44 59.937 Q 1339.355 58.35 1327.148 52.979 A 102.832 102.832 0 0 0 1313.673 49.316 A 126.688 126.688 0 0 0 1304.81 47.852 Q 1294.852 48.958 1293.099 57.689 A 20.745 20.745 0 0 0 1292.725 61.768 L 1322.021 65.186 L 1348.022 72.021 A 72.564 72.564 0 0 1 1358.4 78.567 A 97.054 97.054 0 0 1 1366.943 85.815 Q 1373.413 96.069 1377.319 108.276 L 1370.361 135.986 L 1356.567 154.907 L 1335.815 166.87 L 1311.646 170.41 L 1308.228 168.701 L 1296.143 170.41 L 1290.894 166.87 L 1285.767 168.701 L 1280.64 168.701 A 116.691 116.691 0 0 1 1265.705 164 A 142.818 142.818 0 0 1 1256.47 160.034 L 1239.136 144.531 A 42.912 42.912 0 0 1 1236.449 138.757 Q 1235.054 135.114 1234.009 130.737 L 1242.554 123.779 L 1263.306 111.694 A 73.5 73.5 0 0 1 1277.573 116.892 A 88.746 88.746 0 0 1 1284.058 120.361 A 111.778 111.778 0 0 0 1297.894 124.747 A 144.155 144.155 0 0 0 1309.937 127.197 A 69.951 69.951 0 0 0 1326.7 120.428 A 83.825 83.825 0 0 0 1332.397 116.943 A 82.838 82.838 0 0 0 1321.228 112.03 Q 1315.374 109.931 1308.662 108.376 A 131.795 131.795 0 0 0 1308.228 108.276 L 1285.767 104.858 L 1280.64 106.567 L 1259.888 97.9 L 1246.094 78.857 L 1242.554 51.392 A 131.814 131.814 0 0 1 1249.493 35.297 A 154.624 154.624 0 0 1 1252.93 28.931 L 1270.264 13.428 Z M 299.561 1.221 L 326.416 2.93 Q 334.106 7.813 340.82 15.503 L 342.529 36.987 L 349.731 58.472 A 121.597 121.597 0 0 0 352.391 70.934 A 153.407 153.407 0 0 0 355.103 79.956 L 362.305 110.352 L 367.676 101.318 L 373.047 54.932 A 109.969 109.969 0 0 1 377.442 41.441 A 130.766 130.766 0 0 1 380.127 35.156 L 383.789 13.672 A 56.121 56.121 0 0 1 399.21 3.191 A 63.207 63.207 0 0 1 399.78 2.93 L 426.636 2.93 L 435.669 6.592 Q 434.814 12.939 432.007 19.043 L 424.927 38.818 L 421.265 58.472 A 76.052 76.052 0 0 1 418.396 67.169 Q 416.654 71.585 414.261 76.267 A 120.777 120.777 0 0 1 414.185 76.416 L 408.813 95.947 L 399.78 115.723 L 389.16 158.691 A 56.117 56.117 0 0 1 377.544 164.919 A 71.745 71.745 0 0 1 369.385 167.603 L 344.36 169.434 L 330.078 156.982 A 109.908 109.908 0 0 0 326.416 135.498 L 313.965 97.9 A 110.908 110.908 0 0 1 309.96 88.003 A 146.85 146.85 0 0 1 306.885 78.125 Q 303.467 68.97 301.514 56.641 L 292.48 36.987 L 287.109 15.503 A 58.658 58.658 0 0 1 295.466 5.015 A 70.437 70.437 0 0 1 299.561 1.221 Z M 1082.153 0 L 1105.591 3.662 L 1116.455 1.831 L 1119.995 3.662 L 1156.128 3.662 L 1170.532 1.831 L 1174.194 3.662 A 128.369 128.369 0 0 1 1184.862 7.144 A 167.172 167.172 0 0 1 1193.97 10.864 L 1210.205 21.729 L 1217.407 41.504 L 1219.238 59.448 L 1212.036 83.008 A 61.079 61.079 0 0 1 1198.933 94.731 A 69.008 69.008 0 0 1 1197.632 95.581 L 1190.308 99.243 A 17.351 17.351 0 0 0 1193.828 106.168 A 22.352 22.352 0 0 0 1195.801 108.276 A 100.336 100.336 0 0 1 1201.4 118.473 A 125.915 125.915 0 0 1 1204.834 126.343 L 1215.698 138.916 L 1221.069 158.691 A 122.704 122.704 0 0 1 1208.178 163.454 A 152.609 152.609 0 0 1 1199.341 165.894 L 1183.105 164.063 L 1177.734 165.894 A 35.364 35.364 0 0 1 1169.712 159.636 Q 1166.753 156.597 1164.086 152.639 A 61.926 61.926 0 0 1 1163.33 151.489 L 1156.128 133.545 L 1145.386 117.188 A 34.187 34.187 0 0 0 1131.712 109.043 A 41.521 41.521 0 0 0 1129.028 108.276 L 1121.948 113.647 L 1125.366 124.39 L 1127.319 138.916 L 1123.657 144.287 Q 1125.755 149.427 1126.952 156.371 A 87.92 87.92 0 0 1 1127.319 158.691 L 1123.657 164.063 A 90.29 90.29 0 0 1 1112.783 167.437 A 120.389 120.389 0 0 1 1101.929 169.556 L 1083.984 164.063 Q 1079.224 155.518 1076.782 144.287 L 1078.491 92.041 L 1076.782 81.177 L 1078.491 77.515 L 1078.491 68.604 L 1080.444 43.335 Q 1078.16 34.541 1076.945 23.29 A 197.259 197.259 0 0 1 1076.782 21.729 Q 1078.003 10.864 1082.153 0 Z M 215.576 3.418 L 236.572 6.958 A 72.321 72.321 0 0 1 245.22 9.4 A 94.241 94.241 0 0 1 252.319 12.207 A 59.014 59.014 0 0 1 256.897 18.585 Q 259.094 22.095 261.108 26.245 L 264.648 43.823 L 301.514 140.259 Q 305.664 147.339 306.763 156.006 L 292.725 164.795 L 273.438 168.335 A 50.09 50.09 0 0 1 260.717 162.161 A 56.869 56.869 0 0 1 259.399 161.255 A 85.111 85.111 0 0 1 255.056 151.007 A 110.458 110.458 0 0 1 252.319 141.968 L 236.572 143.799 L 215.576 141.968 A 19.394 19.394 0 0 0 208.443 147.385 A 27.965 27.965 0 0 0 205.078 152.466 L 196.289 166.504 L 177.002 170.044 L 157.715 168.335 L 148.926 156.006 A 124.421 124.421 0 0 1 155.651 139.492 A 162.209 162.209 0 0 1 162.964 126.221 L 164.795 108.643 L 177.002 75.317 L 183.96 61.401 A 84.058 84.058 0 0 1 188.541 45.471 A 93.557 93.557 0 0 1 189.209 43.823 Q 191.732 36.614 196.148 28.221 A 160.731 160.731 0 0 1 196.289 27.954 A 42.017 42.017 0 0 1 206.534 10.989 A 59.307 59.307 0 0 1 215.576 3.418 Z M 986.694 3.418 L 1007.69 6.958 A 72.321 72.321 0 0 1 1016.338 9.4 A 94.241 94.241 0 0 1 1023.437 12.207 A 59.014 59.014 0 0 1 1028.015 18.585 Q 1030.212 22.095 1032.227 26.245 L 1035.767 43.823 L 1072.632 140.259 Q 1076.782 147.339 1077.881 156.006 L 1063.843 164.795 L 1044.556 168.335 A 50.09 50.09 0 0 1 1031.835 162.161 A 56.869 56.869 0 0 1 1030.518 161.255 A 85.111 85.111 0 0 1 1026.175 151.007 A 110.458 110.458 0 0 1 1023.437 141.968 L 1007.69 143.799 L 986.694 141.968 A 19.394 19.394 0 0 0 979.561 147.385 A 27.965 27.965 0 0 0 976.196 152.466 L 967.407 166.504 L 948.12 170.044 L 928.833 168.335 L 920.044 156.006 A 124.421 124.421 0 0 1 926.769 139.492 A 162.209 162.209 0 0 1 934.082 126.221 L 935.913 108.643 L 948.12 75.317 L 955.078 61.401 A 84.058 84.058 0 0 1 959.659 45.471 A 93.557 93.557 0 0 1 960.327 43.823 Q 962.851 36.614 967.266 28.221 A 160.731 160.731 0 0 1 967.407 27.954 A 42.017 42.017 0 0 1 977.652 10.989 A 59.307 59.307 0 0 1 986.694 3.418 Z M 1445.801 3.418 L 1466.797 6.958 A 72.321 72.321 0 0 1 1475.444 9.4 A 94.241 94.241 0 0 1 1482.544 12.207 A 59.014 59.014 0 0 1 1487.122 18.585 Q 1489.319 22.095 1491.333 26.245 L 1494.873 43.823 L 1531.738 140.259 Q 1535.889 147.339 1536.987 156.006 L 1522.949 164.795 L 1503.662 168.335 A 50.09 50.09 0 0 1 1490.941 162.161 A 56.869 56.869 0 0 1 1489.624 161.255 A 85.111 85.111 0 0 1 1485.281 151.007 A 110.458 110.458 0 0 1 1482.544 141.968 L 1466.797 143.799 L 1445.801 141.968 A 19.394 19.394 0 0 0 1438.667 147.385 A 27.965 27.965 0 0 0 1435.303 152.466 L 1426.514 166.504 L 1407.227 170.044 L 1387.939 168.335 L 1379.15 156.006 A 124.421 124.421 0 0 1 1385.875 139.492 A 162.209 162.209 0 0 1 1393.188 126.221 L 1395.02 108.643 L 1407.227 75.317 L 1414.185 61.401 A 84.058 84.058 0 0 1 1418.765 45.471 A 93.557 93.557 0 0 1 1419.434 43.823 Q 1421.957 36.614 1426.373 28.221 A 160.731 160.731 0 0 1 1426.514 27.954 A 42.017 42.017 0 0 1 1436.759 10.989 A 59.307 59.307 0 0 1 1445.801 3.418 Z M 515.503 0.854 L 595.215 2.563 L 624.268 15.259 L 644.165 36.987 A 86.134 86.134 0 0 1 650.535 54.952 A 116.626 116.626 0 0 1 653.198 71.411 L 651.367 80.444 L 655.029 87.769 L 651.367 104.004 A 159.882 159.882 0 0 1 646.364 120.44 A 210.022 210.022 0 0 1 640.503 134.888 A 55.803 55.803 0 0 1 621.33 153.345 A 66.55 66.55 0 0 1 618.774 154.785 A 118.957 118.957 0 0 1 600.394 161.988 A 151.533 151.533 0 0 1 586.182 165.527 L 557.129 167.358 L 544.556 171.021 L 524.536 169.312 L 519.165 167.358 A 37.742 37.742 0 0 1 508.664 145.022 A 50.278 50.278 0 0 1 508.301 140.259 L 510.132 114.868 L 510.132 109.497 L 506.47 98.511 L 508.301 82.397 L 506.47 67.749 L 508.301 49.683 L 506.47 29.663 A 71.614 71.614 0 0 1 510.795 11.32 A 91.29 91.29 0 0 1 515.503 0.854 Z M 13.428 6.958 L 50.659 4.639 L 81.543 2.93 L 88.745 4.639 A 98.067 98.067 0 0 1 104.619 10.354 A 130.773 130.773 0 0 1 117.798 17.334 Q 127.197 26.001 137.695 39.185 A 102.448 102.448 0 0 1 143.584 55.345 A 135.864 135.864 0 0 1 146.729 69.946 L 148.56 82.642 L 146.729 86.182 L 146.729 98.877 L 144.897 104.37 A 99.901 99.901 0 0 1 140.516 120.226 A 136.907 136.907 0 0 1 134.033 135.132 A 71.23 71.23 0 0 1 114.757 153.485 A 82.294 82.294 0 0 1 112.305 155.029 Q 98.022 162.231 79.712 164.063 L 23.193 166.87 L 9.766 163.208 L 0 160.522 L 3.662 120.728 L 1.831 115.234 L 1.831 100.708 L 0 91.675 L 3.662 84.351 L 0 67.993 L 1.831 37.231 L 0 30.029 A 29.049 29.049 0 0 1 10.865 8.875 A 36.563 36.563 0 0 1 13.428 6.958 Z M 1582.397 10.498 L 1585.938 15.869 L 1582.397 42.48 L 1585.938 65.552 L 1582.397 70.923 L 1584.106 122.559 L 1585.938 122.559 L 1584.106 127.808 L 1591.309 124.268 L 1617.92 118.896 L 1623.291 120.728 A 77.654 77.654 0 0 1 1635.269 122.339 A 96.38 96.38 0 0 1 1642.822 124.268 L 1644.531 159.79 L 1635.742 166.87 L 1598.389 165.161 Q 1583.771 167.788 1565.413 168.598 A 348.221 348.221 0 0 1 1562.866 168.701 L 1543.335 168.701 Q 1540.589 164.371 1538.574 158.213 A 70.175 70.175 0 0 1 1537.964 156.25 L 1536.133 136.719 L 1537.964 124.268 L 1534.424 108.276 L 1537.964 92.285 L 1536.133 58.472 L 1537.964 42.48 L 1536.133 30.029 L 1534.424 24.78 A 32.986 32.986 0 0 1 1544.674 6.19 A 46.695 46.695 0 0 1 1550.415 1.587 A 88.679 88.679 0 0 1 1570.175 5.697 A 112.814 112.814 0 0 1 1582.397 10.498 Z M 439.087 9.399 L 461.792 2.319 L 484.619 11.108 L 482.788 35.645 L 481.079 40.894 L 484.619 54.932 L 482.788 60.181 L 482.788 82.886 L 484.619 82.886 L 482.788 84.595 L 481.079 100.464 L 482.788 105.591 L 482.788 112.671 L 484.619 126.587 L 482.788 130.127 L 482.788 135.376 L 484.619 154.663 L 482.788 161.621 A 81.839 81.839 0 0 1 470.737 166.106 A 106.987 106.987 0 0 1 460.083 168.579 Q 448.486 165.649 437.256 159.912 L 437.256 140.625 L 435.547 140.625 L 437.256 133.667 L 439.087 112.671 L 437.256 88.135 L 439.087 61.89 Q 437.374 50.355 437.263 35.936 A 261.261 261.261 0 0 1 437.256 33.936 L 435.547 14.648 L 439.087 9.399 Z M 584.351 49.683 L 557.129 44.312 L 557.129 123.901 L 568.115 122.192 L 586.182 122.192 L 595.215 114.868 A 91.429 91.429 0 0 0 602.409 100.375 A 107.19 107.19 0 0 0 604.37 94.971 L 602.417 66.04 A 68.46 68.46 0 0 0 587.977 52.147 A 79.802 79.802 0 0 0 584.351 49.683 Z M 52.49 49.561 L 50.659 64.453 L 52.49 69.946 L 50.659 109.741 A 22.718 22.718 0 0 0 58.583 124.433 A 34.061 34.061 0 0 0 63.354 127.93 L 85.205 120.728 L 97.9 98.877 L 99.609 75.317 L 97.9 69.946 A 34.441 34.441 0 0 0 84.046 53.26 A 44.181 44.181 0 0 0 81.543 51.758 Q 68.848 47.974 52.49 49.561 Z M 1123.657 48.706 L 1125.366 70.313 L 1129.028 75.806 L 1159.668 70.313 A 70.402 70.402 0 0 0 1166.759 64.816 A 92.254 92.254 0 0 0 1172.363 59.448 A 53.159 53.159 0 0 0 1167.982 50.974 A 64.649 64.649 0 0 0 1165.161 46.875 A 136.702 136.702 0 0 0 1149.078 42.511 Q 1140.503 40.71 1130.859 39.673 A 34.592 34.592 0 0 0 1126.769 44.129 A 46.558 46.558 0 0 0 1123.657 48.706 Z M 218.994 87.646 L 215.576 101.685 A 50.673 50.673 0 0 0 223.425 104.021 A 68.442 68.442 0 0 0 231.323 105.225 L 240.112 103.394 L 234.863 82.397 A 159.591 159.591 0 0 0 229.179 61.743 A 179.324 179.324 0 0 0 227.783 57.861 Q 225.342 71.167 218.994 87.646 Z M 990.112 87.646 L 986.694 101.685 A 50.673 50.673 0 0 0 994.543 104.021 A 68.442 68.442 0 0 0 1002.441 105.225 L 1011.23 103.394 L 1005.981 82.397 A 159.591 159.591 0 0 0 1000.297 61.743 A 179.324 179.324 0 0 0 998.901 57.861 Q 996.46 71.167 990.112 87.646 Z M 1449.219 87.646 L 1445.801 101.685 A 50.673 50.673 0 0 0 1453.65 104.021 A 68.442 68.442 0 0 0 1461.548 105.225 L 1470.337 103.394 L 1465.088 82.397 A 159.591 159.591 0 0 0 1459.404 61.743 A 179.324 179.324 0 0 0 1458.008 57.861 Q 1455.566 71.167 1449.219 87.646 Z M 360.474 131.836 L 353.271 117.432 A 34.186 34.186 0 0 0 348.089 124.397 A 41.863 41.863 0 0 0 346.191 128.174 L 356.934 144.287 L 364.014 142.578 Q 363.281 137.451 360.474 131.836 Z M 245.361 122.681 L 252.319 122.681 L 259.399 133.179 A 20.889 20.889 0 0 0 262.666 124.872 A 25.466 25.466 0 0 0 262.939 122.681 A 69.004 69.004 0 0 0 258.864 118.208 Q 255.959 115.273 252.319 112.183 A 21.381 21.381 0 0 0 247.687 117.709 A 29.286 29.286 0 0 0 245.361 122.681 Z M 1016.479 122.681 L 1023.438 122.681 L 1030.518 133.179 A 20.889 20.889 0 0 0 1033.784 124.872 A 25.466 25.466 0 0 0 1034.058 122.681 A 69.004 69.004 0 0 0 1029.982 118.208 Q 1027.077 115.273 1023.438 112.183 A 21.381 21.381 0 0 0 1018.806 117.709 A 29.286 29.286 0 0 0 1016.479 122.681 Z M 1475.586 122.681 L 1482.544 122.681 L 1489.624 133.179 A 20.889 20.889 0 0 0 1492.891 124.872 A 25.466 25.466 0 0 0 1493.164 122.681 A 69.004 69.004 0 0 0 1489.089 118.208 Q 1486.183 115.273 1482.544 112.183 A 21.381 21.381 0 0 0 1477.912 117.709 A 29.286 29.286 0 0 0 1475.586 122.681 Z M 213.745 50.781 L 210.205 45.532 A 106.352 106.352 0 0 0 204.359 59.151 A 130.194 130.194 0 0 0 201.538 68.237 L 206.787 70.068 L 213.745 50.781 Z M 984.863 50.781 L 981.323 45.532 A 106.352 106.352 0 0 0 975.477 59.151 A 130.194 130.194 0 0 0 972.656 68.237 L 977.905 70.068 L 984.863 50.781 Z M 1443.97 50.781 L 1440.43 45.532 A 106.352 106.352 0 0 0 1434.584 59.151 A 130.194 130.194 0 0 0 1431.763 68.237 L 1437.012 70.068 L 1443.97 50.781 Z M 535.522 62.378 L 539.063 53.345 A 21.849 21.849 0 0 0 537.544 47.376 A 14.978 14.978 0 0 0 528.198 38.818 Q 530.029 50.659 535.522 62.378 Z M 280.518 129.761 L 275.146 126.221 A 49.506 49.506 0 0 1 271.339 137.427 A 57.663 57.663 0 0 1 269.897 140.259 L 278.687 143.799 L 280.518 129.761 Z M 1051.636 129.761 L 1046.265 126.221 A 49.506 49.506 0 0 1 1042.457 137.427 A 57.663 57.663 0 0 1 1041.016 140.259 L 1049.805 143.799 L 1051.636 129.761 Z M 1510.742 129.761 L 1505.371 126.221 A 49.506 49.506 0 0 1 1501.564 137.427 A 57.663 57.663 0 0 1 1500.122 140.259 L 1508.911 143.799 L 1510.742 129.761 Z M 768.311 76.294 L 766.602 74.585 L 768.311 83.374 L 766.602 88.745 L 771.851 83.374 L 775.391 74.585 L 768.311 76.294 Z M 114.136 48.096 A 53.329 53.329 0 0 0 117.413 61.429 A 64.125 64.125 0 0 0 119.507 66.284 Q 118.408 57.617 114.136 48.096 Z M 539.866 146.652 A 22.607 22.607 0 0 0 544.556 147.461 A 96.536 96.536 0 0 0 536.895 141.26 A 122.506 122.506 0 0 0 530.029 136.597 Q 532.224 144.422 539.866 146.652 Z M 458.252 130.127 L 456.543 140.625 L 458.252 144.165 L 461.792 147.705 Q 461.67 139.282 458.252 130.127 Z M 530.029 113.159 L 526.367 123.901 L 535.522 127.563 A 27.552 27.552 0 0 0 531.71 115.748 A 34.046 34.046 0 0 0 530.029 113.159 Z M 620.605 113.159 L 613.281 123.901 A 8.593 8.593 0 0 0 614.106 126.495 A 6.91 6.91 0 0 0 616.943 129.395 A 32.59 32.59 0 0 0 620.248 118.679 A 41.377 41.377 0 0 0 620.605 113.159 Z M 539.063 29.663 L 531.86 24.292 L 528.198 36.987 Q 530.371 36.661 531.577 34.111 A 9.69 9.69 0 0 0 531.86 33.447 L 539.063 29.663 Z M 268.188 103.394 L 257.568 89.355 A 20.919 20.919 0 0 0 262.729 98.778 Q 265.006 101.242 268.188 103.394 Z M 1039.307 103.394 L 1028.687 89.355 A 20.919 20.919 0 0 0 1033.847 98.778 Q 1036.124 101.242 1039.307 103.394 Z M 1498.413 103.394 L 1487.793 89.355 A 20.919 20.919 0 0 0 1492.953 98.778 Q 1495.231 101.242 1498.413 103.394 Z M 213.745 31.494 L 212.036 41.992 L 215.576 43.823 L 222.534 40.283 A 25.128 25.128 0 0 0 216.838 33.734 A 31.613 31.613 0 0 0 213.745 31.494 Z M 984.863 31.494 L 983.154 41.992 L 986.694 43.823 L 993.652 40.283 A 25.128 25.128 0 0 0 987.956 33.734 A 31.613 31.613 0 0 0 984.863 31.494 Z M 1443.97 31.494 L 1442.261 41.992 L 1445.801 43.823 L 1452.759 40.283 A 25.128 25.128 0 0 0 1447.062 33.734 A 31.613 31.613 0 0 0 1443.97 31.494 Z M 622.437 57.007 L 618.774 42.358 L 615.112 51.514 L 622.437 57.007 Z M 1575.195 134.888 L 1566.406 133.179 L 1564.575 142.09 L 1569.946 143.799 L 1575.195 134.888 Z M 1566.406 67.383 L 1562.866 65.552 L 1559.326 76.172 A 12.201 12.201 0 0 0 1561.523 77.133 Q 1562.65 77.509 1564.005 77.77 A 29.342 29.342 0 0 0 1566.406 78.125 L 1568.237 70.923 L 1566.406 67.383 Z M 191.04 84.106 A 23.803 23.803 0 0 0 197.944 96.451 A 30.562 30.562 0 0 0 199.829 98.145 A 38.999 38.999 0 0 0 194.363 88.096 A 48.217 48.217 0 0 0 191.04 84.106 Z M 962.158 84.106 A 23.803 23.803 0 0 0 969.062 96.451 A 30.562 30.562 0 0 0 970.947 98.145 A 38.999 38.999 0 0 0 965.481 88.096 A 48.217 48.217 0 0 0 962.158 84.106 Z M 1421.265 84.106 A 23.803 23.803 0 0 0 1428.169 96.451 A 30.562 30.562 0 0 0 1430.054 98.145 A 38.999 38.999 0 0 0 1424.587 88.096 A 48.217 48.217 0 0 0 1421.265 84.106 Z M 1271.973 41.016 Q 1275.269 48.096 1280.64 54.81 A 31.463 31.463 0 0 0 1275.547 45.09 A 40.111 40.111 0 0 0 1271.973 41.016 Z M 1316.772 80.688 A 32.554 32.554 0 0 0 1323.422 89.606 A 40.905 40.905 0 0 0 1327.148 92.773 A 35.573 35.573 0 0 0 1320.723 84.177 A 44.635 44.635 0 0 0 1316.772 80.688 Z M 526.367 84.106 Q 528.687 91.431 535.522 96.802 A 36.218 36.218 0 0 0 530.651 88.793 A 47.03 47.03 0 0 0 526.367 84.106 Z M 1159.668 88.379 A 27.345 27.345 0 0 0 1170.194 96.525 A 33.547 33.547 0 0 0 1172.363 97.412 A 44.245 44.245 0 0 0 1162.929 90.126 A 52.425 52.425 0 0 0 1159.668 88.379 Z M 1292.725 75.439 L 1290.894 85.815 L 1299.683 84.106 Q 1297.974 78.491 1292.725 75.439 Z M 243.652 33.203 L 241.943 36.743 L 243.652 47.241 L 247.192 36.743 L 243.652 33.203 Z M 1014.771 33.203 L 1013.062 36.743 L 1014.771 47.241 L 1018.311 36.743 L 1014.771 33.203 Z M 1473.877 33.203 L 1472.168 36.743 L 1473.877 47.241 L 1477.417 36.743 L 1473.877 33.203 Z M 465.332 67.139 L 451.294 61.89 A 17.029 17.029 0 0 0 458.773 66.188 Q 461.363 66.935 464.442 67.103 A 32.49 32.49 0 0 0 465.332 67.139 Z M 125 95.337 L 119.507 93.384 L 117.798 102.539 L 119.507 104.37 Q 123.291 100.586 125 95.337 Z M 764.771 44.556 L 773.56 46.265 A 13.459 13.459 0 0 0 771.03 38.785 A 17.446 17.446 0 0 0 770.02 37.476 A 13.997 13.997 0 0 0 766.217 41.626 A 18.878 18.878 0 0 0 764.771 44.556 Z M 1566.406 118.896 L 1561.035 115.356 L 1559.326 125.977 Q 1563.11 123.901 1566.406 118.896 Z M 1184.937 32.471 L 1179.565 27.1 L 1175.903 36.011 L 1184.937 32.471 Z M 25.391 142.334 L 18.066 140.625 L 18.066 149.536 A 21.394 21.394 0 0 0 22.31 146.114 A 29.521 29.521 0 0 0 25.391 142.334 Z M 460.083 96.924 L 456.543 93.384 L 456.543 105.591 L 460.083 96.924 Z M 180.42 138.55 L 178.711 138.55 L 178.711 150.757 L 180.42 141.968 L 180.42 138.55 Z M 951.538 138.55 L 949.829 138.55 L 949.829 150.757 L 951.538 141.968 L 951.538 138.55 Z M 1410.645 138.55 L 1408.936 138.55 L 1408.936 150.757 L 1410.645 141.968 L 1410.645 138.55 Z M 1109.253 75.806 L 1107.422 73.975 L 1101.929 79.468 L 1109.253 83.008 L 1109.253 75.806 Z M 101.44 35.522 A 18.153 18.153 0 0 0 105.976 45.482 A 22.815 22.815 0 0 0 106.812 46.387 A 21.14 21.14 0 0 0 101.44 35.522 Z M 895.386 55.054 L 890.137 65.796 A 19.721 19.721 0 0 0 895.386 55.054 Z M 30.762 20.996 L 27.1 24.536 L 32.593 28.198 L 36.255 22.827 L 30.762 20.996 Z M 1559.326 88.745 L 1553.955 99.365 A 21.009 21.009 0 0 0 1559.326 88.745 Z M 1318.604 146.24 L 1316.772 144.531 L 1315.186 153.076 L 1318.604 154.907 L 1318.604 146.24 Z M 79.712 28.198 A 14.854 14.854 0 0 0 84.735 33.504 A 21.349 21.349 0 0 0 88.745 35.522 A 15.757 15.757 0 0 0 85.284 31.609 Q 82.985 29.709 79.712 28.198 Z M 364.014 119.385 A 10.639 10.639 0 0 0 370.646 125.807 A 16.138 16.138 0 0 0 373.047 126.465 Q 369.873 121.948 364.014 119.385 Z M 586.182 24.292 A 22.54 22.54 0 0 0 592.102 29.85 A 28.503 28.503 0 0 0 595.215 31.616 A 18.772 18.772 0 0 0 589.948 26.369 A 25.079 25.079 0 0 0 586.182 24.292 Z M 1571.777 38.94 L 1562.866 31.738 A 16.966 16.966 0 0 0 1568.775 37.456 A 22.526 22.526 0 0 0 1571.777 38.94 Z M 1557.617 40.649 L 1555.664 47.852 L 1561.035 49.561 A 15.309 15.309 0 0 0 1559.097 42.945 A 19.88 19.88 0 0 0 1557.617 40.649 Z M 61.646 24.536 L 56.152 22.827 L 54.321 30.029 L 61.646 24.536 Z M 324.707 67.383 Q 326.294 72.144 330.078 76.416 A 12.842 12.842 0 0 0 324.993 67.599 A 16.012 16.012 0 0 0 324.707 67.383 Z M 322.998 28.076 L 313.965 22.705 A 14.795 14.795 0 0 0 319.287 26.781 A 20.526 20.526 0 0 0 322.998 28.076 Z M 566.284 142.09 L 558.96 142.09 L 560.791 147.461 L 566.284 142.09 Z M 34.424 97.046 L 29.053 95.337 L 29.053 102.539 L 34.424 97.046 Z M 273.438 126.221 L 271.729 119.141 L 268.188 126.221 L 273.438 126.221 Z M 1044.556 126.221 L 1042.847 119.141 L 1039.307 126.221 L 1044.556 126.221 Z M 1503.662 126.221 L 1501.953 119.141 L 1498.413 126.221 L 1503.662 126.221 Z M 770.02 113.403 L 763.062 113.403 L 764.771 118.652 L 770.02 113.403 Z M 631.47 78.613 L 625.977 76.904 A 10.682 10.682 0 0 0 627.865 81.987 A 14.847 14.847 0 0 0 629.639 84.106 L 631.47 78.613 Z M 326.416 38.818 L 317.627 36.987 L 322.998 40.527 L 326.416 38.818 Z M 546.265 29.663 L 544.556 29.663 L 540.894 35.156 L 546.265 35.156 L 546.265 29.663 Z M 245.361 49.072 L 241.943 57.861 A 16.139 16.139 0 0 0 244.628 52.976 A 14.636 14.636 0 0 0 245.361 49.072 Z M 1016.479 49.072 L 1013.062 57.861 A 16.139 16.139 0 0 0 1015.746 52.976 A 14.636 14.636 0 0 0 1016.479 49.072 Z M 1475.586 49.072 L 1472.168 57.861 A 16.139 16.139 0 0 0 1474.853 52.976 A 14.636 14.636 0 0 0 1475.586 49.072 Z M 780.64 30.396 L 778.809 30.396 L 775.391 35.645 L 780.64 35.645 L 780.64 30.396 Z M 123.169 111.572 L 115.967 106.079 A 11.384 11.384 0 0 0 118.876 109.563 A 10.775 10.775 0 0 0 123.169 111.572 Z M 38.086 133.301 L 30.762 127.93 Q 33.447 131.836 38.086 133.301 Z M 233.154 45.532 A 9.362 9.362 0 0 0 236.438 51.211 A 13.862 13.862 0 0 0 238.403 52.612 A 17.022 17.022 0 0 0 234.455 46.711 A 20.699 20.699 0 0 0 233.154 45.532 Z M 1004.272 45.532 A 9.362 9.362 0 0 0 1007.556 51.211 A 13.862 13.862 0 0 0 1009.521 52.612 A 17.022 17.022 0 0 0 1005.573 46.711 A 20.699 20.699 0 0 0 1004.272 45.532 Z M 1463.379 45.532 A 9.362 9.362 0 0 0 1466.662 51.211 A 13.862 13.862 0 0 0 1468.628 52.612 A 17.022 17.022 0 0 0 1464.679 46.711 A 20.699 20.699 0 0 0 1463.379 45.532 Z M 1559.326 24.78 L 1555.664 28.32 L 1561.035 30.029 L 1561.035 24.78 L 1559.326 24.78 Z M 1179.565 135.254 L 1177.734 135.254 L 1175.903 140.747 L 1179.565 140.747 L 1179.565 135.254 Z M 542.725 82.397 L 535.522 78.613 A 11.03 11.03 0 0 0 542.725 82.397 Z M 615.112 134.888 L 607.91 131.226 A 11.518 11.518 0 0 0 614.569 134.802 A 14.554 14.554 0 0 0 615.112 134.888 Z M 588.013 140.259 L 582.52 145.752 A 8.956 8.956 0 0 0 584.816 145.074 Q 587.397 143.878 587.912 141.041 A 7.82 7.82 0 0 0 588.013 140.259 Z M 625.977 55.054 L 631.47 60.547 A 8.15 8.15 0 0 0 627.027 55.501 A 11.793 11.793 0 0 0 625.977 55.054 Z M 540.894 129.395 L 539.063 133.057 L 542.725 134.888 L 542.725 129.395 L 540.894 129.395 Z M 333.618 85.205 L 330.078 85.205 L 331.787 90.576 L 333.618 85.205 Z M 210.205 117.432 L 206.787 117.432 L 208.496 122.681 L 210.205 117.432 Z M 981.323 117.432 L 977.905 117.432 L 979.614 122.681 L 981.323 117.432 Z M 1440.43 117.432 L 1437.012 117.432 L 1438.721 122.681 L 1440.43 117.432 Z M 59.814 142.334 Q 60.303 145.874 63.354 147.827 A 8.64 8.64 0 0 0 62.427 145.063 A 7.38 7.38 0 0 0 59.814 142.334 Z M 1096.558 61.401 A 7.184 7.184 0 0 0 1099.648 66.393 A 9.892 9.892 0 0 0 1100.22 66.772 A 8.885 8.885 0 0 0 1099.268 64.131 A 7.232 7.232 0 0 0 1096.558 61.401 Z M 616.943 104.004 L 620.605 109.497 A 8.791 8.791 0 0 0 616.943 104.004 Z M 90.576 136.841 L 95.947 140.625 A 6.853 6.853 0 0 0 93.527 138.106 Q 92.557 137.493 91.301 137.066 A 14.063 14.063 0 0 0 90.576 136.841 Z M 1091.187 119.019 L 1094.849 124.39 A 8.566 8.566 0 0 0 1093.624 121.361 A 7.891 7.891 0 0 0 1091.187 119.019 Z M 117.798 73.486 L 115.967 73.486 L 117.798 78.979 L 117.798 73.486 Z M 463.623 28.687 L 460.083 23.315 A 7.862 7.862 0 0 0 463.442 28.563 A 9.753 9.753 0 0 0 463.623 28.687 Z M 217.285 20.996 L 222.534 24.414 Q 221.069 21.851 217.285 20.996 Z M 988.403 20.996 L 993.652 24.414 Q 992.188 21.851 988.403 20.996 Z M 1447.51 20.996 L 1452.759 24.414 Q 1451.294 21.851 1447.51 20.996 Z M 1284.058 23.682 L 1287.476 28.931 A 8.079 8.079 0 0 0 1286.329 25.93 A 7.606 7.606 0 0 0 1284.058 23.682 Z M 461.792 86.304 L 460.083 86.304 L 461.792 91.675 L 461.792 86.304 Z M 1335.815 91.064 L 1341.064 94.482 A 6.466 6.466 0 0 0 1338.895 92.328 Q 1337.619 91.53 1335.815 91.064 Z M 895.386 41.016 L 893.555 41.016 L 895.386 46.265 L 895.386 41.016 Z M 199.829 73.608 L 197.998 77.026 L 201.538 77.026 L 199.829 73.608 Z M 970.947 73.608 L 969.116 77.026 L 972.656 77.026 L 970.947 73.608 Z M 1430.054 73.608 L 1428.223 77.026 L 1431.763 77.026 L 1430.054 73.608 Z M 606.079 40.649 A 4.61 4.61 0 0 0 607.477 42.894 Q 608.083 43.45 608.926 43.912 A 10.536 10.536 0 0 0 609.741 44.312 A 4.221 4.221 0 0 0 608.182 41.816 Q 607.566 41.316 606.721 40.921 A 9.985 9.985 0 0 0 606.079 40.649 Z M 1183.105 83.008 A 3.71 3.71 0 0 0 1184.606 85.459 Q 1185.454 86.11 1186.768 86.548 A 3.619 3.619 0 0 0 1185.537 84.38 Q 1185.003 83.902 1184.246 83.508 A 9.959 9.959 0 0 0 1183.105 83.008 Z M 1114.624 86.548 A 4.141 4.141 0 0 0 1115.901 88.736 Q 1116.798 89.58 1118.286 90.21 Q 1117.619 88.543 1115.132 86.876 A 19.052 19.052 0 0 0 1114.624 86.548 Z M 1172.363 99.243 A 4.266 4.266 0 0 0 1173.694 101.516 Q 1174.544 102.307 1175.903 102.905 Q 1175.316 101.027 1172.584 99.374 A 16.152 16.152 0 0 0 1172.363 99.243 Z M 1093.018 88.379 A 4.764 4.764 0 0 0 1094.498 90.734 Q 1095.322 91.475 1096.558 92.041 A 3.713 3.713 0 0 0 1095.919 90.782 Q 1095.183 89.798 1093.705 88.813 A 17.183 17.183 0 0 0 1093.018 88.379 Z M 1176.974 24.769 A 18.753 18.753 0 0 0 1177.734 25.269 A 3.8 3.8 0 0 0 1176.147 22.716 Q 1175.556 22.278 1174.753 21.942 A 9.42 9.42 0 0 0 1174.194 21.729 Q 1174.721 23.203 1176.974 24.769 Z M 31.833 85.682 A 18.753 18.753 0 0 0 32.593 86.182 A 3.8 3.8 0 0 0 31.005 83.629 Q 30.415 83.191 29.612 82.855 A 9.42 9.42 0 0 0 29.053 82.642 Q 29.579 84.116 31.833 85.682 Z M 782.471 25.146 L 786.011 28.687 A 4.192 4.192 0 0 0 785.273 27.386 Q 784.457 26.376 782.9 25.405 A 16.915 16.915 0 0 0 782.471 25.146 Z M 34.424 51.758 L 36.255 55.42 L 36.255 51.758 L 34.424 51.758 Z M 19.897 60.791 L 21.729 64.453 L 21.729 60.791 L 19.897 60.791 Z M 16.357 37.231 L 18.066 40.894 L 18.066 37.231 L 16.357 37.231 Z M 97.9 122.437 L 99.609 126.099 L 99.609 122.437 L 97.9 122.437 Z M 1114.624 21.729 L 1116.455 25.269 L 1116.455 21.729 L 1114.624 21.729 Z M 548.218 20.752 L 549.927 24.292 L 549.927 20.752 L 548.218 20.752 Z M 771.851 25.146 L 773.56 28.687 L 773.56 25.146 L 771.851 25.146 Z M 775.391 48.096 L 777.1 51.636 L 777.1 48.096 L 775.391 48.096 Z M 1277.222 78.857 L 1278.931 82.397 L 1278.931 78.857 L 1277.222 78.857 Z M 1346.191 104.858 L 1348.022 108.276 L 1348.022 104.858 L 1346.191 104.858 Z" vector-effect="non-scaling-stroke"/></g></svg>